<svg xmlns="http://www.w3.org/2000/svg" viewBox="0 0 64 64">
  <rect width="64" height="64" rx="14" fill="#1c130d"/>
  <ellipse cx="32" cy="52" rx="11" ry="4" fill="#9c7430" opacity="0.5"/>
  <rect x="26" y="28" width="12" height="24" rx="3" fill="#e6d6b8"/>
  <rect x="26" y="28" width="5" height="24" rx="3" fill="#fbf4e4" opacity="0.6"/>
  <rect x="31" y="22" width="2" height="7" fill="#3a2618"/>
  <path d="M32 4C32 4 20 14 20 22.5C20 29 25.4 33 32 33C38.6 33 44 29 44 22.5C44 14 32 4 32 4Z" fill="url(#f)"/>
  <path d="M32 13C32 13 26 19 26 23.5C26 27 28.6 29.5 32 29.5C35.4 29.5 38 27 38 23.5C38 19 32 13 32 13Z" fill="#fff6d8"/>
  <defs>
    <linearGradient id="f" x1="32" y1="4" x2="32" y2="33" gradientUnits="userSpaceOnUse">
      <stop stop-color="#f2c14e"/>
      <stop offset="0.6" stop-color="#e8951f"/>
      <stop offset="1" stop-color="#b14a1f"/>
    </linearGradient>
  </defs>
</svg>
